<svg width="288" height="343" viewBox="0 0 288 343" fill="none" xmlns="http://www.w3.org/2000/svg">
<g clip-path="url(#clip0_49_8581)">
<path d="M113.781 36.0703L278.666 0.594664L280.809 0.134616C281.9 -0.101689 283.036 -0.0261004 284.085 0.352681C285.135 0.731463 286.057 1.39807 286.744 2.27585C287.431 3.15364 287.856 4.20697 287.969 5.31476C288.083 6.42255 287.88 7.53982 287.386 8.53812L221.919 141.139C221.496 141.991 220.873 142.729 220.104 143.291C219.334 143.853 218.441 144.222 217.499 144.367C216.553 144.514 215.587 144.429 214.682 144.119C213.777 143.81 212.961 143.285 212.305 142.591L166.835 94.7709C166.511 94.4221 166.119 94.1439 165.683 93.9538C165.246 93.7636 164.775 93.6657 164.299 93.666C163.651 93.657 163.013 93.8237 162.453 94.1485C161.894 94.4732 161.433 94.9438 161.121 95.5096L151.807 112.692C151.212 113.837 150.251 114.752 149.075 115.289C147.899 115.827 146.577 115.956 145.318 115.657L145.272 115.647C143.998 115.378 142.852 114.69 142.018 113.693C141.184 112.696 140.71 111.448 140.672 110.15L138.807 70.4874C138.785 69.9924 138.661 69.5073 138.443 69.0622C138.209 68.6217 137.891 68.2307 137.508 67.911L111.276 46.4328C110.414 45.7268 109.769 44.7929 109.414 43.7379C109.059 42.683 109.01 41.5498 109.272 40.4682C109.533 39.3865 110.095 38.4003 110.893 37.6225C111.69 36.8446 112.691 36.3067 113.781 36.0703ZM112.774 44.6067L139.007 66.0845C139.348 66.3591 139.658 66.6712 139.93 67.0149L278.964 4.125C279.086 4.06804 279.214 4.02323 279.345 3.99122C279.882 3.85348 280.449 3.90696 280.95 4.14242C281.451 4.37789 281.854 4.78053 282.089 5.28073C282.324 5.78093 282.376 6.34724 282.236 6.88175C282.097 7.41627 281.775 7.88538 281.325 8.20799L167.009 91.9626C167.588 92.2634 168.112 92.6617 168.556 93.1399L214.027 140.96C214.422 141.374 214.911 141.687 215.453 141.872C215.995 142.058 216.573 142.11 217.14 142.024C217.706 141.939 218.243 141.718 218.706 141.381C219.168 141.044 219.542 140.601 219.796 140.089L285.262 7.48982C285.554 6.89068 285.672 6.22171 285.602 5.55907C285.532 4.89643 285.276 4.26675 284.865 3.74169C284.454 3.21663 283.903 2.81729 283.275 2.58913C282.648 2.36098 281.968 2.31317 281.315 2.45116L279.122 2.92279L114.288 38.3868C113.634 38.5282 113.032 38.8504 112.553 39.3168C112.074 39.7831 111.736 40.3747 111.578 41.0237C111.42 41.6728 111.448 42.3531 111.66 42.9867C111.871 43.6204 112.258 44.1818 112.774 44.6067Z" fill="#096496"/>
<path d="M113.781 36.0703L278.666 0.594664L280.809 0.134616C281.9 -0.101689 283.036 -0.0261004 284.085 0.352681C285.135 0.731463 286.057 1.39807 286.744 2.27585C287.431 3.15364 287.856 4.20697 287.969 5.31476C288.083 6.42255 287.88 7.53982 287.386 8.53812L221.919 141.139C221.496 141.991 220.873 142.729 220.104 143.291C219.334 143.853 218.441 144.222 217.499 144.367C216.553 144.514 215.587 144.429 214.682 144.119C213.777 143.81 212.961 143.285 212.305 142.591L166.835 94.7709C166.511 94.4221 166.119 94.1439 165.683 93.9538C165.246 93.7636 164.775 93.6657 164.299 93.666C163.651 93.657 163.013 93.8237 162.453 94.1485C161.894 94.4732 161.433 94.9438 161.121 95.5096L151.807 112.692C151.212 113.837 150.251 114.752 149.075 115.289C147.899 115.827 146.577 115.956 145.318 115.657L145.272 115.647C143.998 115.378 142.852 114.69 142.018 113.693C141.184 112.696 140.71 111.448 140.672 110.15L138.807 70.4874C138.785 69.9924 138.661 69.5073 138.443 69.0622C138.209 68.6217 137.891 68.2307 137.508 67.911L111.276 46.4328C110.414 45.7268 109.769 44.7929 109.414 43.7379C109.059 42.683 109.01 41.5498 109.272 40.4682C109.533 39.3865 110.095 38.4003 110.893 37.6225C111.69 36.8446 112.691 36.3067 113.781 36.0703ZM112.774 44.6067L139.007 66.0845C139.348 66.3591 139.658 66.6712 139.93 67.0149C140.175 67.3203 140.387 67.6508 140.562 68.001C140.744 68.3596 140.888 68.7366 140.991 69.1256L140.989 69.1372C141.097 69.5424 141.16 69.9585 141.175 70.3776L143.041 110.04C143.056 110.82 143.337 111.572 143.838 112.171C144.339 112.77 145.029 113.182 145.795 113.338L145.818 113.343C146.574 113.53 147.37 113.457 148.078 113.136C148.787 112.816 149.366 112.266 149.721 111.575L159.037 94.3825C159.517 93.4981 160.216 92.7508 161.067 92.2113C161.918 91.6719 162.893 91.3583 163.899 91.3002L163.91 91.3027C164.046 91.2963 164.181 91.2899 164.313 91.2946C165.252 91.2951 166.177 91.5243 167.008 91.9622C167.587 92.263 168.111 92.6613 168.555 93.1395L214.027 140.96C214.422 141.374 214.911 141.687 215.453 141.872C215.995 142.058 216.573 142.11 217.14 142.024C217.706 141.939 218.243 141.718 218.706 141.381C219.168 141.044 219.542 140.601 219.796 140.089L285.262 7.48982C285.554 6.89068 285.672 6.22171 285.602 5.55907C285.532 4.89643 285.276 4.26675 284.865 3.74169C284.454 3.21663 283.903 2.81729 283.275 2.58913C282.648 2.36098 281.968 2.31317 281.315 2.45116L279.122 2.92279L114.288 38.3868C113.634 38.5282 113.032 38.8504 112.553 39.3168C112.074 39.7831 111.736 40.3747 111.578 41.0237C111.42 41.6728 111.448 42.3531 111.66 42.9867C111.871 43.6204 112.258 44.1818 112.774 44.6067Z" fill="#3F3D56"/>
<path d="M139.404 67.2503L140.384 69.4048L140.989 69.1385L140.992 69.1269L279.915 6.2979L163.912 91.3032L163.901 91.3006L163.593 91.5355L164.992 93.4435L167.009 91.9626L281.325 8.20842C281.774 7.88579 282.096 7.41694 282.236 6.88282C282.375 6.34869 282.323 5.78282 282.088 5.28291C281.854 4.78299 281.452 4.38042 280.952 4.14467C280.451 3.90892 279.884 3.8548 279.348 3.99166C279.217 4.0237 279.089 4.06851 278.966 4.12543L139.93 67.0149L139.404 67.2503Z" fill="#3F3D56"/>
<path d="M73.9792 292.682C84.1671 281.119 98.5798 276.433 111.606 273.975C127.789 270.924 144.206 270.94 160.4 267.994C173.476 265.615 187.447 261.023 198.081 250.261C202.579 245.884 205.761 240.339 207.267 234.254C208.624 227.88 207.964 221.244 205.378 215.26C202.498 208.398 197.902 202.931 193.071 198.453C187.521 193.383 181.226 189.188 174.404 186.015C160.042 179.189 144.939 175.635 130.228 170.396C123.013 167.827 115.725 165.01 109.025 160.597C103.351 156.859 97.1664 151.819 94.0086 144.326C87.4935 128.864 103.036 119.65 111.844 116.159C117.83 113.894 123.996 112.134 130.277 110.896C131.605 110.611 131.042 107.967 129.718 108.25C123.107 109.536 116.627 111.423 110.361 113.888C105.05 116.088 99.5711 118.981 95.3979 123.958C93.4986 126.205 92.0943 128.826 91.2761 131.65C90.458 134.473 90.2444 137.437 90.6492 140.348C91.7544 147.766 96.5573 153.483 101.069 157.623C107.034 163.099 113.836 166.674 120.732 169.589C127.997 172.659 135.412 175.051 142.827 177.398C157.643 182.087 173.124 186.266 186.499 196.244C195.855 203.224 208.565 216.309 205.453 232.533C204.071 239.736 199.876 245.363 195.349 249.504C190.032 254.225 183.901 257.943 177.253 260.48C147.614 272.377 114.995 263.867 86.1204 280.028C81.005 282.89 72.8267 290.376 72.8267 290.376C72.8267 290.376 72.0082 294.92 73.9792 292.682Z" fill="#D6D6E3"/>
<path d="M48.1869 278.122L4.74628 296.958C2.82771 297.792 1.31933 299.352 0.552048 301.294C-0.215233 303.236 -0.178755 305.403 0.653481 307.318L14.1424 338.266C14.979 340.18 16.5425 341.684 18.4898 342.449C20.4372 343.215 22.6093 343.178 24.5298 342.348L67.9704 323.513C69.889 322.678 71.3974 321.119 72.1647 319.177C72.932 317.235 72.8955 315.068 72.0632 313.153L58.5743 282.205C57.7377 280.291 56.1742 278.787 54.2269 278.021C52.2796 277.256 50.1074 277.292 48.1869 278.122ZM49.9855 282.249C50.2453 282.137 50.5181 282.059 50.7975 282.015L36.111 309.653L5.94604 301.421C6.13388 301.289 6.33467 301.177 6.54529 301.085L49.9855 282.249ZM66.1723 319.386L22.7317 338.222C21.9086 338.577 20.9777 338.593 20.1431 338.265C19.3085 337.937 18.6384 337.292 18.2799 336.472L4.91092 305.803L36.6612 314.469C37.1554 314.604 37.681 314.567 38.1515 314.364C38.6219 314.162 39.0092 313.806 39.2495 313.354L54.6217 284.427L67.9249 314.948C68.2815 315.769 68.2972 316.698 67.9684 317.53C67.6396 318.362 66.9932 319.031 66.171 319.388L66.1723 319.386Z" fill="#096496" fill-opacity="0.1"/>
<path d="M244.257 180.644C264.305 180.644 280.558 164.434 280.558 144.437C280.558 124.441 264.305 108.231 244.257 108.231C224.208 108.231 207.955 124.441 207.955 144.437C207.955 164.434 224.208 180.644 244.257 180.644Z" fill="#096496"/>
<path d="M239.302 163.279C238.676 163.279 238.057 163.133 237.497 162.853C236.936 162.574 236.448 162.168 236.072 161.667L226.169 148.497C225.851 148.074 225.619 147.593 225.488 147.08C225.356 146.568 225.327 146.035 225.402 145.511C225.477 144.987 225.655 144.484 225.925 144.029C226.195 143.574 226.552 143.176 226.977 142.859C227.401 142.541 227.884 142.31 228.397 142.179C228.911 142.048 229.446 142.019 229.971 142.094C230.496 142.169 231.001 142.346 231.457 142.615C231.913 142.885 232.312 143.241 232.63 143.664L239.109 152.282L255.751 127.386C256.045 126.946 256.423 126.568 256.864 126.273C257.304 125.979 257.799 125.774 258.319 125.67C258.839 125.566 259.374 125.565 259.895 125.668C260.415 125.771 260.91 125.974 261.351 126.268C261.793 126.561 262.172 126.938 262.467 127.378C262.762 127.817 262.968 128.311 263.072 128.829C263.176 129.348 263.177 129.882 263.074 130.401C262.971 130.92 262.767 131.414 262.472 131.854L242.665 161.487C242.307 162.023 241.825 162.465 241.26 162.777C240.695 163.089 240.063 163.261 239.418 163.279L239.302 163.279Z" fill="white"/>
</g>
<defs>
<clipPath id="clip0_49_8581">
<rect width="288" height="343" fill="white"/>
</clipPath>
</defs>
</svg>
